<?xml version="1.0" encoding="utf-8"?><svg width="282" height="136" viewBox="0 0 282 136" xmlns="http://www.w3.org/2000/svg" xmlns:xlink="http://www.w3.org/1999/xlink"><svg version="1.1" id="back" x="272" y="28" width="8" height="12" xml:space="preserve" viewBox="0 0 8 12" xmlns="http://www.w3.org/2000/svg"><style>.ast0{fill:#999}</style><path class="ast0" d="M6.5 12L.3 6.3 0 6l.3-.3L6.5 0 8 1.4 3 6l5 4.6L6.5 12z"/></svg><svg version="1.1" id="back--light" x="201" y="66" width="8" height="12" xml:space="preserve" viewBox="0 0 8 12" xmlns="http://www.w3.org/2000/svg"><style>.bst0{fill:#666}</style><path class="bst0" d="M6.5 12L.3 6.3 0 6l.3-.3L6.5 0 8 1.4 3 6l5 4.6L6.5 12z"/></svg><svg width="17" height="19" viewBox="0 0 17 19" id="calendar-black" x="238" y="28" xmlns="http://www.w3.org/2000/svg"><path d="M16 2h-3V.5c0-.3-.2-.5-.5-.5s-.5.2-.5.5V2H5V.5c0-.3-.2-.5-.5-.5S4 .2 4 .5V2H1c-.6 0-1 .4-1 1v15c0 .6.4 1 1 1h15c.6 0 1-.4 1-1V3c0-.6-.4-1-1-1zm-4 1.1v1.4c0 .3.2.5.5.5s.5-.2.5-.5V3.1c.6.2 1 .8 1 1.4 0 .8-.7 1.5-1.5 1.5S11 5.3 11 4.5c0-.7.4-1.2 1-1.4zm-8 0v1.4c0 .3.2.5.5.5s.5-.2.5-.5V3.1c.6.2 1 .8 1 1.4C6 5.3 5.3 6 4.5 6S3 5.3 3 4.5c0-.7.4-1.2 1-1.4zM15 16c0 .6-.4 1-1 1H3c-.6 0-1-.4-1-1V8c0-.6.4-1 1-1h11c.6 0 1 .4 1 1v8zM9 8H8c-.6 0-1 .4-1 1s.4 1 1 1h1c.6 0 1-.4 1-1s-.4-1-1-1zm4 0h-1c-.6 0-1 .4-1 1s.4 1 1 1h1c.6 0 1-.4 1-1s-.4-1-1-1zm-8 3H4c-.6 0-1 .4-1 1s.4 1 1 1h1c.6 0 1-.4 1-1s-.4-1-1-1zm4 0H8c-.6 0-1 .4-1 1s.4 1 1 1h1c.6 0 1-.4 1-1s-.4-1-1-1zm4 0h-1c-.6 0-1 .4-1 1s.4 1 1 1h1c.6 0 1-.4 1-1s-.4-1-1-1zm-8 3H4c-.6 0-1 .4-1 1s.4 1 1 1h1c.6 0 1-.4 1-1s-.4-1-1-1zm4 0H8c-.6 0-1 .4-1 1s.4 1 1 1h1c.6 0 1-.4 1-1s-.4-1-1-1zm4 0h-1c-.6 0-1 .4-1 1s.4 1 1 1h1c.6 0 1-.4 1-1s-.4-1-1-1z"/></svg><svg version="1.1" id="calendar-grey" x="255" y="28" width="17" height="19" xml:space="preserve" viewBox="0 0 17 19" xmlns="http://www.w3.org/2000/svg"><style>.dst0{fill:#555}</style><path class="dst0" d="M16 2h-3V.5c0-.3-.2-.5-.5-.5s-.5.2-.5.5V2H5V.5c0-.3-.2-.5-.5-.5S4 .2 4 .5V2H1c-.6 0-1 .4-1 1v15c0 .6.4 1 1 1h15c.6 0 1-.4 1-1V3c0-.6-.4-1-1-1zm-4 1.1v1.4c0 .3.2.5.5.5s.5-.2.5-.5V3.1c.6.2 1 .8 1 1.4 0 .8-.7 1.5-1.5 1.5S11 5.3 11 4.5c0-.7.4-1.2 1-1.4zm-8 0v1.4c0 .3.2.5.5.5s.5-.2.5-.5V3.1c.6.2 1 .8 1 1.4C6 5.3 5.3 6 4.5 6S3 5.3 3 4.5c0-.7.4-1.2 1-1.4zM15 16c0 .6-.4 1-1 1H3c-.6 0-1-.4-1-1V8c0-.6.4-1 1-1h11c.6 0 1 .4 1 1v8zM9 8H8c-.6 0-1 .4-1 1s.4 1 1 1h1c.6 0 1-.4 1-1s-.4-1-1-1zm4 0h-1c-.6 0-1 .4-1 1s.4 1 1 1h1c.6 0 1-.4 1-1s-.4-1-1-1zm-8 3H4c-.6 0-1 .4-1 1s.4 1 1 1h1c.6 0 1-.4 1-1s-.4-1-1-1zm4 0H8c-.6 0-1 .4-1 1s.4 1 1 1h1c.6 0 1-.4 1-1s-.4-1-1-1zm4 0h-1c-.6 0-1 .4-1 1s.4 1 1 1h1c.6 0 1-.4 1-1s-.4-1-1-1zm-8 3H4c-.6 0-1 .4-1 1s.4 1 1 1h1c.6 0 1-.4 1-1s-.4-1-1-1zm4 0H8c-.6 0-1 .4-1 1s.4 1 1 1h1c.6 0 1-.4 1-1s-.4-1-1-1zm4 0h-1c-.6 0-1 .4-1 1s.4 1 1 1h1c.6 0 1-.4 1-1s-.4-1-1-1z"/></svg><svg version="1.1" id="calendar-white" x="184" y="66" width="17" height="19" xml:space="preserve" viewBox="0 0 17 19" xmlns="http://www.w3.org/2000/svg"><style>.est0{fill:#fff}</style><path class="est0" d="M16 2h-3V.5c0-.3-.2-.5-.5-.5s-.5.2-.5.5V2H5V.5c0-.3-.2-.5-.5-.5S4 .2 4 .5V2H1c-.6 0-1 .4-1 1v15c0 .6.4 1 1 1h15c.6 0 1-.4 1-1V3c0-.6-.4-1-1-1zm-4 1.1v1.4c0 .3.2.5.5.5s.5-.2.5-.5V3.1c.6.2 1 .8 1 1.4 0 .8-.7 1.5-1.5 1.5S11 5.3 11 4.5c0-.7.4-1.2 1-1.4zm-8 0v1.4c0 .3.2.5.5.5s.5-.2.5-.5V3.1c.6.2 1 .8 1 1.4C6 5.3 5.3 6 4.5 6S3 5.3 3 4.5c0-.7.4-1.2 1-1.4zM15 16c0 .6-.4 1-1 1H3c-.6 0-1-.4-1-1V8c0-.6.4-1 1-1h11c.6 0 1 .4 1 1v8zM9 8H8c-.6 0-1 .4-1 1s.4 1 1 1h1c.6 0 1-.4 1-1s-.4-1-1-1zm4 0h-1c-.6 0-1 .4-1 1s.4 1 1 1h1c.6 0 1-.4 1-1s-.4-1-1-1zm-8 3H4c-.6 0-1 .4-1 1s.4 1 1 1h1c.6 0 1-.4 1-1s-.4-1-1-1zm4 0H8c-.6 0-1 .4-1 1s.4 1 1 1h1c.6 0 1-.4 1-1s-.4-1-1-1zm4 0h-1c-.6 0-1 .4-1 1s.4 1 1 1h1c.6 0 1-.4 1-1s-.4-1-1-1zm-8 3H4c-.6 0-1 .4-1 1s.4 1 1 1h1c.6 0 1-.4 1-1s-.4-1-1-1zm4 0H8c-.6 0-1 .4-1 1s.4 1 1 1h1c.6 0 1-.4 1-1s-.4-1-1-1zm4 0h-1c-.6 0-1 .4-1 1s.4 1 1 1h1c.6 0 1-.4 1-1s-.4-1-1-1z"/></svg><svg version="1.1" id="caprice" width="160" height="54" xml:space="preserve" viewBox="0 0 160 54" xmlns="http://www.w3.org/2000/svg"><style>.fst0{fill:#aaa}</style><path class="fst0" d="M5.3 15c2.8 0 3.5 1.1 4 1.1.1 0 .2-.1.4-.1s.2.2.2 1.2c0 .8.2 1.3-.1 1.3-.2 0-.3-.4-.3-.5-.9-1.6-2-2.5-3.9-2.5-2.9 0-4.3 1.9-4.3 4.7 0 2.6 1.5 5.1 4.3 5.1 2.3 0 3.8-1.5 4-2.2 0-.1.1-.2.2-.2s.1.1.1.2l-.3 1.5c0 .1-1.1 1.2-4.4 1.2-3 0-5.2-2.1-5.2-5.1C0 17.5 2.2 15 5.3 15M15.8 20.6c-.1.2 0 .3.2.3h2.9c.3 0 .3-.1.2-.3L17.7 17c-.1-.2-.1-.2-.2 0l-1.7 3.6zm4 1.5c-.1-.3-.2-.6-.6-.6H16c-.3 0-.5 0-.7.3l-.9 2.1c0 .1-.1.3-.1.5 0 1 1 .6 1 1 0 .3-.2.2-.4.2-.4 0-.8-.1-1.2-.1-.4 0-.8.1-1.2.1-.1 0-.1-.1-.1-.2 0-.3.7-.1 1.1-.9L17 17c.9-1.9.9-2.1 1.1-2.1.2 0 .3.4.3.5l3.1 7.6c.2.5.4 1.2.7 1.7.4.7 1.3.4 1.3.7 0 .1-.1.1-.2.1-.6 0-1.2-.1-1.8-.1-.4 0-.8.1-1.2.1-.1 0-.3 0-.3-.1 0-.4.9-.2.9-.8 0-.3-.3-1-.5-1.4l-.6-1.1zM28.3 23.6c0 2.1 1.5 1.4 1.5 1.9 0 .1-.1.2-.4.2-.5 0-.7-.1-1.6-.1-.7 0-1.2.1-1.6.1-.1 0-.2 0-.2-.2 0-.4 1.1.1 1.1-1.6v-7.1c0-1.8-1.2-.9-1.2-1.4 0-.1.1-.2.2-.2s.6.1 1.5.1c.7 0 1-.1 1.7-.1 1.9 0 3.9.6 3.9 2.8 0 .6-.4 2.8-3.6 2.8-.1 0-1-.1-1-.3 0-.1.1-.1.1-.1.1 0 .4.1 1 .1 1.5 0 2.4-.7 2.4-2 0-1.8-1.4-2.7-3.1-2.7-.5 0-.8 0-.8.4v7.4zM38.1 20c0 .3.9.2 1.6.2.6 0 2-.3 2-2.1s-1.4-2.4-2.8-2.4c-.5 0-.8 0-.8.5V20zm5.3 4c1.1 1.6 1.8 1.1 1.8 1.4 0 .2-.8.2-1 .2-1.1 0-1.7-.8-2.2-1.6l-1.6-2.6c-.5-.8-.3-.8-2-.8-.5 0-.4.3-.4.4v3.1c0 1.3 1.5.8 1.5 1.3 0 .1-.1.1-.3.1-.1 0-.5-.1-1.7-.1-.6 0-1.1.1-1.7.1-.1 0-.1-.1-.1-.2 0-.4 1.1-.2 1.1-1.3v-7.5c0-1.4-1.3-.8-1.3-1.3 0-.1.1-.2.3-.2.3 0 .2.1.9.1.9 0 1.7-.1 2.5-.1.2 0 3.5-.3 3.5 2.5 0 1.1-.8 2.1-1.9 2.5l2.6 4zM48.9 16.4c0-1.1-1.2-.8-1.2-1.1 0-.1 0-.2.1-.2.5 0 1.1.1 1.6.1s.9-.1 1.4-.1c.2 0 .3 0 .3.1 0 .4-1.1 0-1.1 1.1v7.9c0 1 1.3.7 1.3 1.1 0 .1 0 .1-.3.1s-1-.1-1.6-.1c-.9 0-1.2.1-1.4.1-.3 0-.3-.1-.3-.2 0-.4 1.1.1 1.1-1.4v-7.4zM59.5 15c2.8 0 3.5 1.1 4 1.1.1 0 .2-.1.4-.1s.2.2.2 1.2c0 .8.2 1.3-.1 1.3-.2 0-.3-.4-.3-.5-.9-1.6-2-2.5-3.9-2.5-2.9 0-4.3 1.9-4.3 4.7 0 2.6 1.5 5.1 4.3 5.1 2.3 0 3.8-1.5 4-2.2 0-.1.1-.2.2-.2s.1.1.1.2l-.3 1.5c0 .1-1.1 1.2-4.4 1.2-3 0-5.2-2.1-5.2-5.1 0-3.2 2.2-5.7 5.3-5.7M69 19.5c0 .5 0 .5.6.5h1.6c1.5 0 1.1-1.2 1.5-1.2.1 0 .2.2.2.3v2.7c0 .1-.1.2-.2.2-.5 0 0-1.3-1.2-1.3h-2.2c-.3 0-.3.3-.3.5v2.7c0 .9-.1 1.2 1.1 1.2 3.4 0 3.9-1.5 4.1-1.5.1 0 .1.1.1.2 0 .5-.4 1-.7 1.4-.5.5-.8.5-1.4.5-1.1 0-2.2-.1-3.4-.1-.6 0-1.2.1-1.8.1-.1 0-.2 0-.2-.1 0-.2.2-.1.6-.4.4-.2.4-.6.4-1.3v-6.7c0-.7 0-1.4-.8-1.5-.1 0-.4-.1-.4-.2s.1-.2.5-.2c2.8 0 3.6.1 4.2.1.3 0 1.6-.1 2.1-.1.1 0 .1.1.1.3 0 1.6-.2 1.8-.3 1.8-.4 0-.1-.7-.4-1-.4-.5-1.9-.4-2.5-.4-1.4 0-1.4-.1-1.4.9v2.6zM84.9 33.4c.3-.3.8-.6 1.3-.6 1.2 0 1.5 1 1.5 1.8V36c0 .5.7.3.7.5 0 .1-.1.1-.2.1h-1.5c-.1 0-.1 0-.1-.1s.4-.1.4-.5v-1.7c0-1.1-.8-1.3-1.1-1.3-.4 0-1.1.4-1.1.8v1.9c0 .8.8.5.8.7 0 .1 0 .1-.2.1H83.7c-.1 0-.1 0-.1-.1 0-.2.5-.1.5-.5v-5.1c0-.5-.7-.3-.7-.5 0-.1 0-.1.1-.1.7-.1 1-.5 1.2-.5.1 0 .1.1.1.1v3.6zM93.3 34.9c0-.9-.4-2-1.5-2-.9 0-1.2.8-1.2 1.5 0 .9.4 2 1.5 2 .7.1 1.2-.4 1.2-1.5m-3.4-.1c0-1.1.9-2.1 2-2.1.7 0 2 .3 2 2 0 1.1-.8 2-2 2-1.1 0-2-.7-2-1.9M96.9 35.9c0 .6.8.4.8.6 0 .1-.1.1-.2.1H96c-.1 0-.1 0-.1-.1s.4-.1.4-.5v-5.1c0-.5-.6-.3-.6-.5 0-.1 0-.1.1-.1.7-.2.9-.5 1.1-.5.1 0 .1.1.1.1v6zM102.1 34c0-.7-.5-1.1-1.2-1.1-.9 0-1.2.8-1.2 1.5 0 .8.5 1.8 1.4 1.8.8 0 1-.5 1-.8V34zm0-3.1c0-.5-.7-.3-.7-.5 0-.1 0-.1.1-.1.7-.2 1-.5 1.2-.5.1 0 .1.1.1.1v6.2c0 .1.2.2.5.2.1 0 .1 0 .1.1s-.2.1-.6.1c-.2 0-.5.1-.6.1-.1 0-.1-.1-.1-.1V36c-.3.4-.8.6-1.3.6-1 0-1.6-.9-1.6-1.8 0-1.1.8-2.1 1.9-2.1.4 0 .8.1 1.1.3v-2.1zM106.3 31.3c0 .1-.3.5-.4.5-.1 0-.4-.4-.4-.5 0-.1.3-.5.4-.5.1 0 .4.4.4.5m-.7 2.4c0-.5-.5-.3-.5-.5 0-.1 0-.1.1-.1.6-.2.8-.5 1-.5.1 0 .1.1.1.1V36c0 .5.7.3.7.5 0 .1-.1.1-.2.1h-1.4c-.1 0-.1 0-.1-.1 0-.2.4.1.4-.7v-2.1zM109.7 35.9c0 .6.8.4.8.6 0 .1-.1.1-.2.1H108.6c-.1 0-.2 0-.2-.1 0-.2.5 0 .5-.6v-2.2c0-.5-.7-.3-.7-.5 0-.1 0-.1.1-.1.8-.2.9-.5 1.1-.5.1 0 .1.1.1.1v.6c0 .1.4-.7 1.3-.7 1.2 0 1.5 1 1.5 1.7v1.5c0 .6.7.4.7.6 0 .1-.1.1-.2.1h-1.5c-.1 0-.2 0-.2-.1 0-.2.4 0 .4-.6v-1.7c0-.5-.3-1.1-1.1-1.1s-1.1.6-1.1.7v2.2zM116.4 32.9c-.7 0-.9.5-.9 1.1 0 .6.3 1.2.9 1.2.6 0 .9-.5.9-1.1 0-.5-.2-1.2-.9-1.2m-.1 5.3c1.2 0 1.5-.6 1.5-.9 0-.4-.3-.4-1.2-.4-.8 0-.9-.1-1-.1-.3 0-.4.4-.4.7-.1.6.6.7 1.1.7m1.3-5.1c.4 0 .5-.6.6-.6.1 0 .1.1.1.1 0 .7-.1.7-.5.9 0 .2.1.3.1.5 0 .9-.7 1.4-1.5 1.4-.5 0-.5-.1-.6-.1-.2 0-.4.3-.4.5 0 .1-.1.4 1.1.4.8 0 1.8-.1 1.8.8 0 .6-.5 1.3-2 1.3-.6 0-1.5-.2-1.5-1 0-.4.3-.6.7-.8-.3-.1-.3-.4-.3-.7 0-.4.5-.7.5-.7-.4-.2-.6-.7-.6-1.1 0-.8.7-1.4 1.5-1.4.5.1.8.5 1 .5M120 33.8c0-.7.6-1.1 1.2-1.1.2 0 .8.1.9.2.1.1 0 .4 0 .4 0 .2 0 .4-.1.4s-.2-.8-1-.8c-.4 0-.6.2-.6.6 0 .3.2.5 1.2.9.5.2.8.5.8 1.1 0 .7-.6 1.2-1.2 1.2s-.8-.3-1-.3c-.2 0-.2 0-.2-.7 0-.2 0-.4.1-.4.2 0 .1 1.2 1.1 1.2.4 0 .8-.3.8-.7 0-.5-.5-.6-.8-.8-.6-.3-1.2-.6-1.2-1.2M128.8 35.9c0 .6.8.4.8.6 0 .1-.1.1-.2.1h-1.5c-.1 0-.1 0-.1-.1s.4-.1.4-.5v-5.1c0-.5-.6-.3-.6-.5 0-.1 0-.1.1-.1.7-.2.9-.5 1.1-.5.1 0 .1.1.1.1v6zM132.5 31.3c0 .1-.3.5-.4.5-.1 0-.4-.4-.4-.5 0-.1.3-.5.4-.5.1 0 .4.4.4.5m-.7 2.4c0-.5-.5-.3-.5-.5 0-.1 0-.1.1-.1.6-.2.8-.5 1-.5.1 0 .1.1.1.1V36c0 .5.7.3.7.5 0 .1-.1.1-.2.1h-1.4c-.1 0-.1 0-.1-.1 0-.2.4.1.4-.7v-2.1zM135.9 35.9c0 .6.7.4.7.6 0 .1-.1.1-.2.1h-1.5c-.1 0-.1 0-.1-.1s.4-.1.4-.5v-2.3c0-.5-.6-.3-.6-.5 0-.1 0-.1.1-.1.7-.2.8-.5 1-.5.1 0 .1.1.1.1v.5c.3-.3.6-.6 1.1-.6.6 0 .9.2 1.2.7.3-.4.6-.7 1.3-.7 1.3 0 1.3 1.3 1.3 1.7v1.5c0 .6.7.4.7.6 0 .1-.1.1-.2.1h-1.5c-.1 0-.1 0-.1-.1s.4-.1.4-.5v-1.8c0-.6-.2-1.2-.9-1.2-.4 0-.8.4-.8.5v2.3c0 .6.7.4.7.6 0 .1-.1.1-.2.1h-1.5c-.1 0-.1 0-.1-.1s.4-.1.4-.5v-1.9c0-.7-.4-1.1-.9-1.1-.3 0-.9.2-.9.8v2.3zM144.3 31.3c0 .1-.3.5-.4.5-.1 0-.4-.4-.4-.5 0-.1.3-.5.4-.5.1 0 .4.4.4.5m-.7 2.4c0-.5-.5-.3-.5-.5 0-.1 0-.1.1-.1.6-.2.8-.5 1-.5.1 0 .1.1.1.1V36c0 .5.7.3.7.5 0 .1-.1.1-.2.1h-1.4c-.1 0-.1 0-.1-.1 0-.2.4.1.4-.7v-2.1zM147.1 33.2c-.4 0-.5 0-.5-.1s.2-.2.7-.7c.2-.2.3-.4.3-.4.1 0 .1.2.1.8h1c.2 0 .3-.2.4-.2 0 0 .1 0 .1.1 0 0 0 .1-.1.1l-.2.3h-1.2v2.6c0 .4.3.5.6.5.5 0 .6-.2.8-.2 0 0 .1 0 .1.1s-.5.4-1.1.4c-.4 0-1-.1-1-1.1v-2.2zM153.2 34.1c.1 0 .2 0 .2-.2 0-.5-.5-1-1-1-.6 0-1 .6-1 1.1h1.8zm-1.8.2c0 1.5.9 1.9 1.5 1.9.8 0 1.1-.5 1.3-.5v.1c0 .2-.8.9-1.6.9-1.4 0-1.8-1.3-1.8-1.9 0-1.2.6-2.1 1.8-2.1 1.1 0 1.6 1.1 1.6 1.4 0 .2-.1.2-.3.2h-2.5zM158.8 34c0-.7-.5-1.1-1.2-1.1-.9 0-1.2.8-1.2 1.5 0 .8.5 1.8 1.4 1.8.8 0 1-.5 1-.8V34zm0-3.1c0-.5-.7-.3-.7-.5 0-.1 0-.1.1-.1.7-.2 1-.5 1.2-.5.1 0 .1.1.1.1v6.2c0 .1.2.2.5.2.1 0 .1 0 .1.1s-.2.1-.6.1c-.2 0-.5.1-.6.1-.1 0-.1-.1-.1-.1V36c-.3.4-.8.6-1.3.6-1 0-1.6-.9-1.6-1.8 0-1.1.8-2.1 1.9-2.1.4 0 .8.1 1.1.3v-2.1z"/><g><path class="fst0" d="M79.3 0h.2v54h-.2z"/></g></svg><svg version="1.1" id="caprice--dark" y="54" width="160" height="54" xml:space="preserve" viewBox="0 0 160 54" xmlns="http://www.w3.org/2000/svg"><style>.gst0{fill:#444}</style><path class="gst0" d="M5.3 15c2.8 0 3.5 1.1 4 1.1.1 0 .2-.1.4-.1s.2.2.2 1.2c0 .8.2 1.3-.1 1.3-.2 0-.3-.4-.3-.5-.9-1.6-2-2.5-3.9-2.5-2.9 0-4.3 1.9-4.3 4.7 0 2.6 1.5 5.1 4.3 5.1 2.3 0 3.8-1.5 4-2.2 0-.1.1-.2.2-.2s.1.1.1.2l-.3 1.5c0 .1-1.1 1.2-4.4 1.2-3 0-5.2-2.1-5.2-5.1C0 17.5 2.2 15 5.3 15M15.8 20.6c-.1.2 0 .3.2.3h2.9c.3 0 .3-.1.2-.3L17.7 17c-.1-.2-.1-.2-.2 0l-1.7 3.6zm4 1.5c-.1-.3-.2-.6-.6-.6H16c-.3 0-.5 0-.7.3l-.9 2.1c0 .1-.1.3-.1.5 0 1 1 .6 1 1 0 .3-.2.2-.4.2-.4 0-.8-.1-1.2-.1-.4 0-.8.1-1.2.1-.1 0-.1-.1-.1-.2 0-.3.7-.1 1.1-.9L17 17c.9-1.9.9-2.1 1.1-2.1.2 0 .3.4.3.5l3.1 7.6c.2.5.4 1.2.7 1.7.4.7 1.3.4 1.3.7 0 .1-.1.1-.2.1-.6 0-1.2-.1-1.8-.1-.4 0-.8.1-1.2.1-.1 0-.3 0-.3-.1 0-.4.9-.2.9-.8 0-.3-.3-1-.5-1.4l-.6-1.1zM28.3 23.6c0 2.1 1.5 1.4 1.5 1.9 0 .1-.1.2-.4.2-.5 0-.7-.1-1.6-.1-.7 0-1.2.1-1.6.1-.1 0-.2 0-.2-.2 0-.4 1.1.1 1.1-1.6v-7.1c0-1.8-1.2-.9-1.2-1.4 0-.1.1-.2.2-.2s.6.1 1.5.1c.7 0 1-.1 1.7-.1 1.9 0 3.9.6 3.9 2.8 0 .6-.4 2.8-3.6 2.8-.1 0-1-.1-1-.3 0-.1.1-.1.1-.1.1 0 .4.1 1 .1 1.5 0 2.4-.7 2.4-2 0-1.8-1.4-2.7-3.1-2.7-.5 0-.8 0-.8.4v7.4zM38.1 20c0 .3.9.2 1.6.2.6 0 2-.3 2-2.1s-1.4-2.4-2.8-2.4c-.5 0-.8 0-.8.5V20zm5.3 4c1.1 1.6 1.8 1.1 1.8 1.4 0 .2-.8.2-1 .2-1.1 0-1.7-.8-2.2-1.6l-1.6-2.6c-.5-.8-.3-.8-2-.8-.5 0-.4.3-.4.4v3.1c0 1.3 1.5.8 1.5 1.3 0 .1-.1.1-.3.1-.1 0-.5-.1-1.7-.1-.6 0-1.1.1-1.7.1-.1 0-.1-.1-.1-.2 0-.4 1.1-.2 1.1-1.3v-7.5c0-1.4-1.3-.8-1.3-1.3 0-.1.1-.2.3-.2.3 0 .2.1.9.1.9 0 1.7-.1 2.5-.1.2 0 3.5-.3 3.5 2.5 0 1.1-.8 2.1-1.9 2.5l2.6 4zM48.9 16.4c0-1.1-1.2-.8-1.2-1.1 0-.1 0-.2.1-.2.5 0 1.1.1 1.6.1s.9-.1 1.4-.1c.2 0 .3 0 .3.1 0 .4-1.1 0-1.1 1.1v7.9c0 1 1.3.7 1.3 1.1 0 .1 0 .1-.3.1s-1-.1-1.6-.1c-.9 0-1.2.1-1.4.1-.3 0-.3-.1-.3-.2 0-.4 1.1.1 1.1-1.4v-7.4zM59.5 15c2.8 0 3.5 1.1 4 1.1.1 0 .2-.1.4-.1s.2.2.2 1.2c0 .8.2 1.3-.1 1.3-.2 0-.3-.4-.3-.5-.9-1.6-2-2.5-3.9-2.5-2.9 0-4.3 1.9-4.3 4.7 0 2.6 1.5 5.1 4.3 5.1 2.3 0 3.8-1.5 4-2.2 0-.1.1-.2.2-.2s.1.1.1.2l-.3 1.5c0 .1-1.1 1.2-4.4 1.2-3 0-5.2-2.1-5.2-5.1 0-3.2 2.2-5.7 5.3-5.7M69 19.5c0 .5 0 .5.6.5h1.6c1.5 0 1.1-1.2 1.5-1.2.1 0 .2.2.2.3v2.7c0 .1-.1.2-.2.2-.5 0 0-1.3-1.2-1.3h-2.2c-.3 0-.3.3-.3.5v2.7c0 .9-.1 1.2 1.1 1.2 3.4 0 3.9-1.5 4.1-1.5.1 0 .1.1.1.2 0 .5-.4 1-.7 1.4-.5.5-.8.5-1.4.5-1.1 0-2.2-.1-3.4-.1-.6 0-1.2.1-1.8.1-.1 0-.2 0-.2-.1 0-.2.2-.1.6-.4.4-.2.4-.6.4-1.3v-6.7c0-.7 0-1.4-.8-1.5-.1 0-.4-.1-.4-.2s.1-.2.5-.2c2.8 0 3.6.1 4.2.1.3 0 1.6-.1 2.1-.1.1 0 .1.1.1.3 0 1.6-.2 1.8-.3 1.8-.4 0-.1-.7-.4-1-.4-.5-1.9-.4-2.5-.4-1.4 0-1.4-.1-1.4.9v2.6zM84.9 33.4c.3-.3.8-.6 1.3-.6 1.2 0 1.5 1 1.5 1.8V36c0 .5.7.3.7.5 0 .1-.1.1-.2.1h-1.5c-.1 0-.1 0-.1-.1s.4-.1.4-.5v-1.7c0-1.1-.8-1.3-1.1-1.3-.4 0-1.1.4-1.1.8v1.9c0 .8.8.5.8.7 0 .1 0 .1-.2.1H83.7c-.1 0-.1 0-.1-.1 0-.2.5-.1.5-.5v-5.1c0-.5-.7-.3-.7-.5 0-.1 0-.1.1-.1.7-.1 1-.5 1.2-.5.1 0 .1.1.1.1v3.6zM93.3 34.9c0-.9-.4-2-1.5-2-.9 0-1.2.8-1.2 1.5 0 .9.4 2 1.5 2 .7.1 1.2-.4 1.2-1.5m-3.4-.1c0-1.1.9-2.1 2-2.1.7 0 2 .3 2 2 0 1.1-.8 2-2 2-1.1 0-2-.7-2-1.9M96.9 35.9c0 .6.8.4.8.6 0 .1-.1.1-.2.1H96c-.1 0-.1 0-.1-.1s.4-.1.4-.5v-5.1c0-.5-.6-.3-.6-.5 0-.1 0-.1.1-.1.7-.2.9-.5 1.1-.5.1 0 .1.1.1.1v6zM102.1 34c0-.7-.5-1.1-1.2-1.1-.9 0-1.2.8-1.2 1.5 0 .8.5 1.8 1.4 1.8.8 0 1-.5 1-.8V34zm0-3.1c0-.5-.7-.3-.7-.5 0-.1 0-.1.1-.1.7-.2 1-.5 1.2-.5.1 0 .1.1.1.1v6.2c0 .1.2.2.5.2.1 0 .1 0 .1.1s-.2.1-.6.1c-.2 0-.5.1-.6.1-.1 0-.1-.1-.1-.1V36c-.3.4-.8.6-1.3.6-1 0-1.6-.9-1.6-1.8 0-1.1.8-2.1 1.9-2.1.4 0 .8.1 1.1.3v-2.1zM106.3 31.3c0 .1-.3.5-.4.5-.1 0-.4-.4-.4-.5 0-.1.3-.5.4-.5.1 0 .4.4.4.5m-.7 2.4c0-.5-.5-.3-.5-.5 0-.1 0-.1.1-.1.6-.2.8-.5 1-.5.1 0 .1.1.1.1V36c0 .5.7.3.7.5 0 .1-.1.1-.2.1h-1.4c-.1 0-.1 0-.1-.1 0-.2.4.1.4-.7v-2.1zM109.7 35.9c0 .6.8.4.8.6 0 .1-.1.1-.2.1H108.6c-.1 0-.2 0-.2-.1 0-.2.5 0 .5-.6v-2.2c0-.5-.7-.3-.7-.5 0-.1 0-.1.1-.1.8-.2.9-.5 1.1-.5.1 0 .1.1.1.1v.6c0 .1.4-.7 1.3-.7 1.2 0 1.5 1 1.5 1.7v1.5c0 .6.7.4.7.6 0 .1-.1.1-.2.1h-1.5c-.1 0-.2 0-.2-.1 0-.2.4 0 .4-.6v-1.7c0-.5-.3-1.1-1.1-1.1s-1.1.6-1.1.7v2.2zM116.4 32.9c-.7 0-.9.5-.9 1.1 0 .6.3 1.2.9 1.2.6 0 .9-.5.9-1.1 0-.5-.2-1.2-.9-1.2m-.1 5.3c1.2 0 1.5-.6 1.5-.9 0-.4-.3-.4-1.2-.4-.8 0-.9-.1-1-.1-.3 0-.4.4-.4.7-.1.6.6.7 1.1.7m1.3-5.1c.4 0 .5-.6.6-.6.1 0 .1.1.1.1 0 .7-.1.7-.5.9 0 .2.1.3.1.5 0 .9-.7 1.4-1.5 1.4-.5 0-.5-.1-.6-.1-.2 0-.4.3-.4.5 0 .1-.1.4 1.1.4.8 0 1.8-.1 1.8.8 0 .6-.5 1.3-2 1.3-.6 0-1.5-.2-1.5-1 0-.4.3-.6.7-.8-.3-.1-.3-.4-.3-.7 0-.4.5-.7.5-.7-.4-.2-.6-.7-.6-1.1 0-.8.7-1.4 1.5-1.4.5.1.8.5 1 .5M120 33.8c0-.7.6-1.1 1.2-1.1.2 0 .8.1.9.2.1.1 0 .4 0 .4 0 .2 0 .4-.1.4s-.2-.8-1-.8c-.4 0-.6.2-.6.6 0 .3.2.5 1.2.9.5.2.8.5.8 1.1 0 .7-.6 1.2-1.2 1.2s-.8-.3-1-.3c-.2 0-.2 0-.2-.7 0-.2 0-.4.1-.4.2 0 .1 1.2 1.1 1.2.4 0 .8-.3.8-.7 0-.5-.5-.6-.8-.8-.6-.3-1.2-.6-1.2-1.2M128.8 35.9c0 .6.8.4.8.6 0 .1-.1.1-.2.1h-1.5c-.1 0-.1 0-.1-.1s.4-.1.4-.5v-5.1c0-.5-.6-.3-.6-.5 0-.1 0-.1.1-.1.7-.2.9-.5 1.1-.5.1 0 .1.1.1.1v6zM132.5 31.3c0 .1-.3.5-.4.5-.1 0-.4-.4-.4-.5 0-.1.3-.5.4-.5.1 0 .4.4.4.5m-.7 2.4c0-.5-.5-.3-.5-.5 0-.1 0-.1.1-.1.6-.2.8-.5 1-.5.1 0 .1.1.1.1V36c0 .5.7.3.7.5 0 .1-.1.1-.2.1h-1.4c-.1 0-.1 0-.1-.1 0-.2.4.1.4-.7v-2.1zM135.9 35.9c0 .6.7.4.7.6 0 .1-.1.1-.2.1h-1.5c-.1 0-.1 0-.1-.1s.4-.1.4-.5v-2.3c0-.5-.6-.3-.6-.5 0-.1 0-.1.1-.1.7-.2.8-.5 1-.5.1 0 .1.1.1.1v.5c.3-.3.6-.6 1.1-.6.6 0 .9.2 1.2.7.3-.4.6-.7 1.3-.7 1.3 0 1.3 1.3 1.3 1.7v1.5c0 .6.7.4.7.6 0 .1-.1.1-.2.1h-1.5c-.1 0-.1 0-.1-.1s.4-.1.4-.5v-1.8c0-.6-.2-1.2-.9-1.2-.4 0-.8.4-.8.5v2.3c0 .6.7.4.7.6 0 .1-.1.1-.2.1h-1.5c-.1 0-.1 0-.1-.1s.4-.1.4-.5v-1.9c0-.7-.4-1.1-.9-1.1-.3 0-.9.2-.9.8v2.3zM144.3 31.3c0 .1-.3.5-.4.5-.1 0-.4-.4-.4-.5 0-.1.3-.5.4-.5.1 0 .4.4.4.5m-.7 2.4c0-.5-.5-.3-.5-.5 0-.1 0-.1.1-.1.6-.2.8-.5 1-.5.1 0 .1.1.1.1V36c0 .5.7.3.7.5 0 .1-.1.1-.2.1h-1.4c-.1 0-.1 0-.1-.1 0-.2.4.1.4-.7v-2.1zM147.1 33.2c-.4 0-.5 0-.5-.1s.2-.2.7-.7c.2-.2.3-.4.3-.4.1 0 .1.2.1.8h1c.2 0 .3-.2.4-.2 0 0 .1 0 .1.1 0 0 0 .1-.1.1l-.2.3h-1.2v2.6c0 .4.3.5.6.5.5 0 .6-.2.8-.2 0 0 .1 0 .1.1s-.5.4-1.1.4c-.4 0-1-.1-1-1.1v-2.2zM153.2 34.1c.1 0 .2 0 .2-.2 0-.5-.5-1-1-1-.6 0-1 .6-1 1.1h1.8zm-1.8.2c0 1.5.9 1.9 1.5 1.9.8 0 1.1-.5 1.3-.5v.1c0 .2-.8.9-1.6.9-1.4 0-1.8-1.3-1.8-1.9 0-1.2.6-2.1 1.8-2.1 1.1 0 1.6 1.1 1.6 1.4 0 .2-.1.2-.3.2h-2.5zM158.8 34c0-.7-.5-1.1-1.2-1.1-.9 0-1.2.8-1.2 1.5 0 .8.5 1.8 1.4 1.8.8 0 1-.5 1-.8V34zm0-3.1c0-.5-.7-.3-.7-.5 0-.1 0-.1.1-.1.7-.2 1-.5 1.2-.5.1 0 .1.1.1.1v6.2c0 .1.2.2.5.2.1 0 .1 0 .1.1s-.2.1-.6.1c-.2 0-.5.1-.6.1-.1 0-.1-.1-.1-.1V36c-.3.4-.8.6-1.3.6-1 0-1.6-.9-1.6-1.8 0-1.1.8-2.1 1.9-2.1.4 0 .8.1 1.1.3v-2.1z"/><g><path class="gst0" d="M79.3 0h.2v54h-.2z"/></g></svg><svg width="30" height="30" viewBox="0 0 30 30" id="clock" x="183" y="28" xmlns="http://www.w3.org/2000/svg"><defs><path d="M14.985 0C6.705 0 0 6.72 0 15c0 8.28 6.705 15 14.985 15C23.28 30 30 23.28 30 15c0-8.28-6.72-15-15.015-15zM15 28.5C7.541 28.5 1.5 22.459 1.5 15S7.541 1.5 15 1.5 28.5 7.541 28.5 15 22.459 28.5 15 28.5z" id="ha"/><path id="hb" d="M18 10.5h-1.5v9l7.875 4.725.7-1.165L18 18.885z"/></defs><g transform="translate(-3 -3)" fill="#A7AAA8" fill-rule="nonzero"><use xlink:href="#ha" transform="translate(3 3)"/><use xlink:href="#hb"/></g></svg><svg width="23" height="38" viewBox="0 0 23 38" id="dining-chair" x="160" y="28" xmlns="http://www.w3.org/2000/svg"><path d="M22.293.69a1.922 1.922 0 00-1.914-.64 1.904 1.904 0 00-1.424 1.419l-3.494 14.998H2.555A2.544 2.544 0 000 19v18.367c0 .35.286.633.639.633h1.916a.636.636 0 00.64-.587l1.042-13.98h11.376l4.216 14.113c.081.27.331.455.615.454h1.917a.641.641 0 00.498-.237.63.63 0 00.126-.534L19.18 20.256l3.513-18a1.877 1.877 0 00-.4-1.567zM1.963 36.732h-.685V20.9h1.867L1.962 36.733zm2.37-14.566l.094-1.267h10.429l.379 1.267H4.332zM20.92 36.733l-4.216-14.11-.516-1.723h1.827l3.55 15.833h-.645zm.52-34.718L18 19.634H1.277V19c0-.7.572-1.266 1.277-1.266h13.417a.638.638 0 00.623-.491L20.2 1.755a.634.634 0 011.24.26z" fill="#A7AAA8"/></svg><svg width="12" height="8" viewBox="0 0 12 8" id="dropdown" x="213" y="48" xmlns="http://www.w3.org/2000/svg"><path d="M12 1.5L6.3 7.7 6 8l-.3-.3L0 1.5 1.4 0 6 5l4.6-5L12 1.5z"/></svg><svg width="24" height="24" viewBox="0 0 24 24" id="instagram" x="160" y="66" xmlns="http://www.w3.org/2000/svg"><path d="M23.9 7.1c-.1-1.3-.3-2.1-.6-2.9-.2-.8-.6-1.5-1.3-2.2-.7-.7-1.3-1.1-2.1-1.4C19.1.3 18.3.1 17 0h-5C8.7 0 8.3 0 7.1.1c-1.3 0-2.2.2-3 .5C3.4.9 2.7 1.3 2 2 1.3 2.7.9 3.4.6 4.1c-.3.8-.5 1.7-.5 3C0 8.3 0 8.7 0 12c0 3.3 0 3.7.1 4.9.1 1.3.3 2.1.6 2.9.2.8.6 1.5 1.3 2.2.7.7 1.3 1.1 2.1 1.4.8.3 1.6.5 2.9.6h5c3.3 0 3.7 0 4.9-.1 1.3-.1 2.1-.3 2.9-.6.8-.3 1.5-.7 2.1-1.4.7-.7 1.1-1.3 1.4-2.1.3-.8.5-1.6.6-2.9.1-1.2.1-1.6.1-4.9 0-3.3 0-3.7-.1-4.9zm-2.1 9.7c-.1 1.2-.2 1.8-.4 2.2-.2.6-.5 1-.9 1.4-.4.4-.8.7-1.4.9-.4.2-1.1.4-2.2.4-1.3.1-1.6.1-4.8.1-3.2 0-3.6 0-4.8-.1-1.2-.1-1.8-.2-2.2-.4-.6-.2-1-.5-1.4-.9-.4-.4-.7-.8-.9-1.4-.2-.4-.4-1.1-.4-2.2-.1-1.3-.1-1.6-.1-4.8 0-3.2 0-3.6.1-4.8-.1-1.2.1-1.9.2-2.3.2-.6.5-1 .9-1.4.5-.4.9-.6 1.4-.9.4-.1 1.1-.3 2.3-.4H12c3.2 0 3.6 0 4.8.1 1.2.1 1.8.2 2.2.4.6.2 1 .5 1.4.9.4.4.7.8.9 1.4.2.4.4 1.1.4 2.2.1 1.3.1 1.6.1 4.8v4.8zM12 5.8c-3.4 0-6.2 2.8-6.2 6.2 0 3.4 2.8 6.2 6.2 6.2s6.2-2.8 6.2-6.2c0-3.4-2.8-6.2-6.2-6.2zM12 16c-2.2 0-4-1.8-4-4s1.8-4 4-4 4 1.8 4 4-1.8 4-4 4zm6.4-11.8c-.8 0-1.4.6-1.4 1.4 0 .8.6 1.4 1.4 1.4.8 0 1.4-.6 1.4-1.4 0-.8-.6-1.4-1.4-1.4z"/></svg><svg version="1.1" id="ot" y="108" width="122" height="28" xml:space="preserve" viewBox="0 0 122 28" xmlns="http://www.w3.org/2000/svg"><style>.lst0{fill:#aaa}</style><path class="lst0" d="M4.3 10.7C2.5 10.7 1 12.2 1 14c0 1.8 1.5 3.3 3.3 3.3 1.8 0 3.3-1.5 3.3-3.3.1-1.8-1.4-3.3-3.3-3.3zM24.4 1C17 1 11.1 6.8 11.1 14s6 13 13.3 13c7.4 0 13.3-5.8 13.3-13s-6-13-13.3-13zm0 16.2c-1.8 0-3.3-1.5-3.3-3.3 0-1.8 1.5-3.2 3.3-3.2 1.8 0 3.3 1.5 3.3 3.2 0 1.9-1.5 3.3-3.3 3.3zm36.3-5.7c-1.6 0-2.4 1-2.5 1.1V12c0-.2-.2-.4-.4-.4H57c-.2 0-.4.2-.4.4v9.7c0 .2.2.4.4.4h1.3c.2 0 .4-.2.4-.4V19c.3.1 1.1.3 1.8.3 2.3 0 3.8-1.7 3.8-3.9 0-2.3-1.5-3.9-3.6-3.9zm-.4 5.9c-1 0-1.6-.4-1.6-.4v-2.6c.2-.4.7-1 1.7-1 1.2 0 1.8 1 1.8 2.1 0 .9-.6 1.9-1.9 1.9zM49.7 8.7c-3 0-5.4 2.4-5.4 5.3 0 3 2.4 5.3 5.4 5.3 3.1 0 5.4-2.3 5.4-5.3.1-2.9-2.4-5.3-5.4-5.3zm0 8.5c-1.8 0-3.3-1.5-3.3-3.2 0-1.8 1.5-3.3 3.3-3.3 1.8 0 3.3 1.5 3.3 3.3.1 1.8-1.4 3.2-3.3 3.2zm58.6-.1c-.2 0-.4-.2-.4-.3V9c0-.2-.2-.4-.4-.4h-1.3c-.2 0-.4.2-.4.4V17.8c0 .6.7 1.3 1.3 1.3h1.1c.2 0 .4-.2.4-.4v-1.3c.1-.2-.1-.3-.3-.3zm-38.9-5.6c-2.3 0-3.8 1.8-3.8 3.9 0 2.1 1.6 3.9 3.8 3.9 1.2 0 2.2-.5 2.8-1 .2-.2.2-.3 0-.5l-.6-.8c-.1-.2-.3-.1-.5 0-.3.3-.9.5-1.6.5-1.1 0-1.9-.8-1.9-1.7h4.9c.2 0 .3-.1.4-.3V15c-.1-2.1-1.6-3.5-3.5-3.5zm-1.7 2.9c.1-.7.7-1.3 1.6-1.3.8 0 1.4.6 1.5 1.3h-3.1zm33.1-2.9c-.8 0-1.5.2-1.9.3V9c0-.2-.2-.4-.4-.4h-1.3c-.2 0-.4.2-.4.4v9.7c0 .2.2.4.4.4h.8c.2 0 .4-.2.4-.4v-.5s.9 1.1 2.5 1.1c2.1 0 3.6-1.8 3.6-3.9 0-2.2-1.5-3.9-3.7-3.9zm-.2 5.9c-1 0-1.5-.6-1.7-1v-2.6s.6-.4 1.6-.4c1.2 0 1.9 1 1.9 2s-.6 2-1.8 2zm19.6-4.7c0-.4-.3-.5-.6-.5h-.6v1.5h.3v-.5h.3l.3.5h.4l-.4-.6c.2 0 .3-.2.3-.4zm-.7.3h-.2v-.5h.2c.2 0 .3.1.3.3 0 .1-.1.2-.3.2zm0-1.5c-.8 0-1.5.6-1.5 1.5s.7 1.5 1.5 1.5 1.5-.6 1.5-1.5-.7-1.5-1.5-1.5zm0 2.7c-.7 0-1.2-.5-1.2-1.2s.5-1.2 1.2-1.2 1.2.5 1.2 1.2-.5 1.2-1.2 1.2zm-6-2.7c-2.3 0-3.8 1.8-3.8 3.9 0 2.1 1.6 3.9 3.8 3.9 1.2 0 2.2-.5 2.8-1 .2-.2.2-.3 0-.5l-.6-.8c-.1-.2-.3-.1-.5 0-.3.3-.9.5-1.6.5-1.1 0-1.9-.8-1.9-1.7h4.9c.2 0 .3-.1.4-.3V15c-.1-2.1-1.6-3.5-3.5-3.5zm-1.7 2.9c.1-.7.7-1.3 1.6-1.3.8 0 1.4.6 1.5 1.3h-3.1zm-33.4-2.9c-1.5 0-2.2.8-2.4 1.1V12c0-.2-.2-.4-.4-.4h-.9c-.2 0-.4.1-.4.4v6.7c0 .2.2.4.4.4H76c.4 0 .5-.1.5-.4v-4.2c.2-.5.7-1.2 1.6-1.2.9 0 1.3.6 1.3 1.6v3.8c0 .2.2.4.4.4h1.3c.2 0 .4-.2.4-.4v-3.8c0-1.8-.7-3.4-3.1-3.4zm13.8 0c-1.2 0-2.4.3-2.6.4-.2 0-.3.2-.2.4l.2.8c0 .2.2.4.4.3.4-.1 1.4-.3 2.1-.3.8 0 1.1.4 1.1 1.4 0 0-.7-.2-1.5-.2-1.9 0-3 1-3 2.3 0 1.6 1.1 2.5 2.6 2.5 1.2 0 1.9-.5 2.4-.9v.4c0 .2.2.4.4.4h.7c.2 0 .4-.2.4-.4v-4c-.1-1.9-.6-3.1-3-3.1zm.9 5.5c-.1.3-.7.8-1.4.8s-1.1-.4-1.1-1c0-.7.5-1.1 1.3-1.1.6 0 1.1.2 1.1.2V17zm-3.6-6.7V9c0-.2-.1-.3-.3-.3h-7.7c-.2 0-.3.1-.3.3v1.3c0 .2.1.3.3.3h2.8v8.2c0 .2.1.3.3.3h1.5c.2 0 .3-.1.3-.3v-8.2h2.8c.1 0 .3-.2.3-.3z"/></svg><svg version="1.1" id="ot--dark" x="160" width="122" height="28" xml:space="preserve" viewBox="0 0 122 28" xmlns="http://www.w3.org/2000/svg"><style>.mst0{fill:#444}</style><path class="mst0" d="M24.4 1C17 1 11.1 6.8 11.1 14s6 13 13.3 13c7.4 0 13.3-5.8 13.3-13s-6-13-13.3-13zm0 16.2c-1.8 0-3.3-1.5-3.3-3.3 0-1.8 1.5-3.2 3.3-3.2 1.8 0 3.3 1.5 3.3 3.2 0 1.9-1.5 3.3-3.3 3.3zM4.3 10.7C2.5 10.7 1 12.2 1 14c0 1.8 1.5 3.3 3.3 3.3 1.8 0 3.3-1.5 3.3-3.3.1-1.8-1.4-3.3-3.3-3.3zm56.4.8c-1.6 0-2.4 1-2.5 1.1V12c0-.2-.2-.4-.4-.4H57c-.2 0-.4.2-.4.4v9.7c0 .2.2.4.4.4h1.3c.2 0 .4-.2.4-.4V19c.3.1 1.1.3 1.8.3 2.3 0 3.8-1.7 3.8-3.9 0-2.3-1.5-3.9-3.6-3.9zm-.4 5.9c-1 0-1.6-.4-1.6-.4v-2.6c.2-.4.7-1 1.7-1 1.2 0 1.8 1 1.8 2.1 0 .9-.6 1.9-1.9 1.9zM49.7 8.7c-3 0-5.4 2.4-5.4 5.3 0 3 2.4 5.3 5.4 5.3 3.1 0 5.4-2.3 5.4-5.3.1-2.9-2.4-5.3-5.4-5.3zm0 8.5c-1.8 0-3.3-1.5-3.3-3.2 0-1.8 1.5-3.3 3.3-3.3 1.8 0 3.3 1.5 3.3 3.3.1 1.8-1.4 3.2-3.3 3.2zm70.5-4.5c0-.4-.3-.5-.6-.5h-.6v1.5h.3v-.5h.3l.3.5h.4l-.4-.6c.2 0 .3-.2.3-.4zm-.7.3h-.2v-.5h.2c.2 0 .3.1.3.3 0 .1-.1.2-.3.2zm-6-1.5c-2.3 0-3.8 1.8-3.8 3.9 0 2.1 1.6 3.9 3.8 3.9 1.2 0 2.2-.5 2.8-1 .2-.2.2-.3 0-.5l-.6-.8c-.1-.2-.3-.1-.5 0-.3.3-.9.5-1.6.5-1.1 0-1.9-.8-1.9-1.7h4.9c.2 0 .3-.1.4-.3V15c-.1-2.1-1.6-3.5-3.5-3.5zm-1.7 2.9c.1-.7.7-1.3 1.6-1.3.8 0 1.4.6 1.5 1.3h-3.1zm-11-2.9c-.8 0-1.5.2-1.9.3V9c0-.2-.2-.4-.4-.4h-1.3c-.2 0-.4.2-.4.4v9.7c0 .2.2.4.4.4h.8c.2 0 .4-.2.4-.4v-.5s.9 1.1 2.5 1.1c2.1 0 3.6-1.8 3.6-3.9 0-2.2-1.5-3.9-3.7-3.9zm-.2 5.9c-1 0-1.5-.6-1.7-1v-2.6s.6-.4 1.6-.4c1.2 0 1.9 1 1.9 2s-.6 2-1.8 2zm7.7-.3c-.2 0-.4-.2-.4-.3V9c0-.2-.2-.4-.4-.4h-1.3c-.2 0-.4.2-.4.4V17.8c0 .6.7 1.3 1.3 1.3h1.1c.2 0 .4-.2.4-.4v-1.3c.1-.2-.1-.3-.3-.3zm11.2-5.6c-.8 0-1.5.6-1.5 1.5s.7 1.5 1.5 1.5 1.5-.6 1.5-1.5-.7-1.5-1.5-1.5zm0 2.7c-.7 0-1.2-.5-1.2-1.2s.5-1.2 1.2-1.2 1.2.5 1.2 1.2-.5 1.2-1.2 1.2zm-30-3.9V9c0-.2-.1-.3-.3-.3h-7.7c-.2 0-.3.1-.3.3v1.3c0 .2.1.3.3.3h2.8v8.2c0 .2.1.3.3.3h1.5c.2 0 .3-.1.3-.3v-8.2h2.8c.1 0 .3-.2.3-.3zm2.7 1.2c-1.2 0-2.4.3-2.6.4-.2 0-.3.2-.2.4l.2.8c0 .2.2.4.4.3.4-.1 1.4-.3 2.1-.3.8 0 1.1.4 1.1 1.4 0 0-.7-.2-1.5-.2-1.9 0-3 1-3 2.3 0 1.6 1.1 2.5 2.6 2.5 1.2 0 1.9-.5 2.4-.9v.4c0 .2.2.4.4.4h.7c.2 0 .4-.2.4-.4v-4c-.1-1.9-.6-3.1-3-3.1zm.9 5.5c-.1.3-.7.8-1.4.8s-1.1-.4-1.1-1c0-.7.5-1.1 1.3-1.1.6 0 1.1.2 1.1.2V17zm-14.7-5.5c-1.5 0-2.2.8-2.4 1.1V12c0-.2-.2-.4-.4-.4h-.9c-.2 0-.4.1-.4.4v6.7c0 .2.2.4.4.4H76c.4 0 .5-.1.5-.4v-4.2c.2-.5.7-1.2 1.6-1.2.9 0 1.3.6 1.3 1.6v3.8c0 .2.2.4.4.4h1.3c.2 0 .4-.2.4-.4v-3.8c0-1.8-.7-3.4-3.1-3.4zm-9 0c-2.3 0-3.8 1.8-3.8 3.9 0 2.1 1.6 3.9 3.8 3.9 1.2 0 2.2-.5 2.8-1 .2-.2.2-.3 0-.5l-.6-.8c-.1-.2-.3-.1-.5 0-.3.3-.9.5-1.6.5-1.1 0-1.9-.8-1.9-1.7h4.9c.2 0 .3-.1.4-.3V15c-.1-2.1-1.6-3.5-3.5-3.5zm-1.7 2.9c.1-.7.7-1.3 1.6-1.3.8 0 1.4.6 1.5 1.3h-3.1z"/></svg><svg width="25" height="20" viewBox="0 0 25 20" id="twitter" x="213" y="28" xmlns="http://www.w3.org/2000/svg"><path d="M25 2.4c-.9.4-2.4 1-3.5 1.2 1.1-.6 2.4-2 2.8-3.2-1 .6-2.1 1-3.3 1.2-.9-1-2.3-1.6-3.7-1.6-2.8 0-5.4 1.9-5.4 4.7 0 .4-.1.8 0 1.2-4.6.1-8.4-1.3-9.7-4.8-.4.7-1 1.5-1 2.4 0 1.8 1 2.6 2.4 3.5-1.5 2.7-2.4 0-2.4.1-.3 2.1 1.2 4.3 3.5 4.7.1.5-.1 1.1-1 1.1-.3 0-1 0-1.3-.1.7 2 3.1 2.9 5.3 3-1.8 1.4-4.2 1.8-6.6 1.8H-.1C2.3 19.1 5 20 7.9 20c9.4 0 14.8-7.4 14.8-14.1V4.7c.9-.7 1.6-1.3 2.3-2.3z"/></svg></svg>